# xmcd
#
# Track frame offsets:
#	187
#	22557
#	43975
#	67867
#	93365
#	117930
#	138035
#	158952
#	182522
#	201095
#	225197
#
# Disc length: 3130 seconds
#
# Revision: 1
# Processed by: cddbd v1.5.2PL0 Copyright (c) Steve Scherf et al.
# Submitted via: EZCDAudioConverter 8.0.2.1
#
DISCID=7b0c380b
DTITLE=Ý Lan - The Bets Of Ý Lan
DYEAR=1992
DGENRE=Easy Listening
TTITLE0=Ý Lan - Trái tim còn trinh
TTITLE1=Ý Lan - Kiếp đam mê
TTITLE2=Ý Lan - Lệ đá
TTITLE3=Ý Lan - Tình đến không ngờ
TTITLE4=Ý Lan - Gọi giấc mơ xưa
TTITLE5=Ý Lan - Viễn xứ
TTITLE6=Ý Lan - Quên đi tình yêu cũ
TTITLE7=Ý Lan - Dĩ vãng
TTITLE8=Ý Lan - Bài không tên số 4
TTITLE9=Ý Lan - Yêu em lầm lỡ
TTITLE10=Soundtrack - Dĩ vãng
EXTD=
EXTT0=
EXTT1=
EXTT2=
EXTT3=
EXTT4=
EXTT5=
EXTT6=
EXTT7=
EXTT8=
EXTT9=
EXTT10=
PLAYORDER=
